# xmcd CD database file
#
# Track frame offsets:
#	150
#	15870
#	37141
#	53818
#	77678
#	95603
#	109414
#	129871
#	148777
#	163850
#	185323
#	201937
#
# Disc length: 2974 seconds
#
# Revision: 0
# Processed by: cddbd v1.5.2PL0 Copyright (c) Steve Scherf et al.
# Submitted via: CDex 1.70beta2
#
DISCID=a00b9c0c
DTITLE=Fletcher Gary - Human Spirit
DYEAR=2007
DGENRE=Blues
TTITLE0=Payback
TTITLE1=May You Now Find People
TTITLE2=C'ant Get Arrestd
TTITLE3=Born Too Pretty
TTITLE4=You C'ant Quit Your Your Love For Me
TTITLE5=Wake Me When It's Once
TTITLE6=So Lonely
TTITLE7=Solanki's  Knife
TTITLE8=A Lie Is A Lie
TTITLE9=Too Much
TTITLE10=You Are True
TTITLE11=You Think Me To The Edge
EXTD=YEAR: 2007
EXTT0=
EXTT1=
EXTT2=
EXTT3=
EXTT4=
EXTT5=
EXTT6=
EXTT7=
EXTT8=
EXTT9=
EXTT10=
EXTT11=
PLAYORDER=
